# xmcd CD database file
#
# Track frame offsets:
#	150
#	16687
#	34283
#	49726
#	67787
#	83007
#	97924
#	115376
#	131442
#	144804
#	158885
#	175265
#	192698
#	206886
#	220698
#	234356
#	248053
#	261710
#	275409
#	289066
#	302764
#	316421
#	330084
#	343781
#
# Disc length: 4770 seconds
#
# Revision: 0
# Processed by: cddbd v1.5.2PL0 Copyright (c) Steve Scherf et al.
# Submitted via: CDex 1.70beta2
#
DISCID=5712a018
DTITLE=Fairplay - Linedance
DYEAR=1900
DGENRE=Country
TTITLE0=Bebob-deutsch
TTITLE1=Canadian Stomp-deutsch
TTITLE2=Cajun Slap-deutsch
TTITLE3=Black Coffee-deutsch
TTITLE4=Ski Bumpus-deutsch
TTITLE5=Tush Push-deutsch
TTITLE6=Bread and Butter-deutsch
TTITLE7=Irish Stew-deutsch
TTITLE8=Cotton Eyed Joe-deutsch
TTITLE9=Sassy Shanay-deutsch
TTITLE10=Rita's Walz-deutsch
TTITLE11=Tequila Sunrise-deutsch
TTITLE12=Bebob
TTITLE13=Canadian Stomp
TTITLE14=Cajun Slap
TTITLE15=Black Coffee
TTITLE16=Ski Bumpus
TTITLE17=Tush Push
TTITLE18=Bread and Butter
TTITLE19=Irish Stew
TTITLE20=Cotton Eyed Joe
TTITLE21=Sassy Shanay
TTITLE22=Rita's Waltz
TTITLE23=Tequila Sunrise
EXTD=
EXTT0=
EXTT1=
EXTT2=
EXTT3=
EXTT4=
EXTT5=
EXTT6=
EXTT7=
EXTT8=
EXTT9=
EXTT10=
EXTT11=
EXTT12=
EXTT13=
EXTT14=
EXTT15=
EXTT16=
EXTT17=
EXTT18=
EXTT19=
EXTT20=
EXTT21=
EXTT22=
EXTT23=
PLAYORDER=
